ISO-10303-21;
HEADER;
FILE_DESCRIPTION(('ViewDefinition [CoordinationView_V2.0]'), '2;1');
FILE_NAME(
/* name */ 'walls_export.ifc',
/* time_stamp */ '2026-10-02T05:08:39',
/* author */ ('Pointorama'),
/* organization */ (),
/* preprocessor_version */ '',
/* originating_system */ '',
/* authorization */ 'None');

FILE_SCHEMA(('IFC2X3'));
ENDSEC;

DATA;
#1= IFCCARTESIANPOINT((0.00000000000,0.00000000000,0.00000000000));
#2= IFCAXIS2PLACEMENT3D(#1,$,$);
#3= IFCGEOMETRICREPRESENTATIONCONTEXT($,'Model',3,0.000100000000000,#2,$);
#4= IFCGEOMETRICREPRESENTATIONSUBCONTEXT('Axis','Model',*,*,*,*,#3,$,.MODEL_VIEW.,$);
#5= IFCGEOMETRICREPRESENTATIONSUBCONTEXT('Body','Model',*,*,*,*,#3,$,.MODEL_VIEW.,$);
#6= IFCLOCALPLACEMENT($,#2);
#7= IFCLOCALPLACEMENT(#6,#2);
#8= IFCDIRECTION((0.00000000000,0.00000000000,1.00000000000));
#9= IFCSIUNIT(*,.LENGTHUNIT.,$,.METRE.);
#10= IFCSIUNIT(*,.PLANEANGLEUNIT.,$,.RADIAN.);
#11= IFCSIUNIT(*,.TIMEUNIT.,$,.SECOND.);
#12= IFCUNITASSIGNMENT((#9,#10,#11));
#13= IFCPROJECT('vO06Nu6LT2aDnJR8At77u1',$,'Ifc Project',$,$,$,$,(#3),#12);
#14= IFCSITE('QBnHMb3NNQX5nDu2nM0e_3',$,'Ifc Site',$,$,#6,$,$,.ELEMENT.,$,$,-7.87750000080,$,$);
#15= IFCBUILDING('Jpk28S6jRuKm5ZX37W6Sh0',$,'Ifc Building',$,$,#7,$,$,.ELEMENT.,$,$,$);
#16= IFCRELAGGREGATES('7ICunX3Twr8psRtfWsrSb2',$,$,$,#13,(#14));
#17= IFCRELAGGREGATES('RrfpldAd8faYvkm6puTdZ3',$,$,$,#14,(#15));
#18= IFCPROPERTYSINGLEVALUE('Eastings',$,IFCREAL(-5.86950000080),$);
#19= IFCPROPERTYSINGLEVALUE('Northings',$,IFCREAL(-10.7885000008),$);
#20= IFCPROPERTYSINGLEVALUE('OrthogonalHeight',$,IFCREAL(-7.87750000080),$);
#21= IFCPROPERTYSET('M9Xb9mySsFezKFWW4Fj9l0',$,'ePset_MapConversion',$,(#18,#19,#20));
#22= IFCRELDEFINESBYPROPERTIES('fXqRpOL0ryswXaFo43c2X3',$,$,$,(#14),#21);
#23= IFCBUILDINGSTOREY('_Qu_3uotnpELeSQxlsIcN1',$,'Floor -0.41m',$,$,$,$,$,.ELEMENT.,7.46964580058);
#24= IFCRELAGGREGATES('TsvdbDd$OBPIXasZfpu_P1',$,$,$,#15,(#23));
#25= IFCCARTESIANPOINT((10.1161084792,6.84911171803));
#26= IFCCARTESIANPOINT((10.1388967609,6.89361670898));
#27= IFCCARTESIANPOINT((9.65971778958,7.13897492878));
#28= IFCCARTESIANPOINT((9.63692950794,7.09446993783));
#29= IFCPOLYLINE((#25,#26,#27,#28,#25));
#30= IFCARBITRARYCLOSEDPROFILEDEF(.AREA.,$,#29);
#31= IFCCARTESIANPOINT((0.00000000000,0.00000000000,7.46964580058));
#32= IFCAXIS2PLACEMENT3D(#31,$,$);
#33= IFCEXTRUDEDAREASOLID(#30,#32,#8,2.32886874879);
#34= IFCSHAPEREPRESENTATION(#5,'Body','SweptSolid',(#33));
#35= IFCCARTESIANPOINT((10.1275026200,6.87136421351));
#36= IFCCARTESIANPOINT((9.64832364876,7.11672243331));
#37= IFCPOLYLINE((#35,#36));
#38= IFCSHAPEREPRESENTATION(#4,'Axis','Curve2D',(#37));
#39= IFCPRODUCTDEFINITIONSHAPE($,$,(#38,#34));
#40= IFCLOCALPLACEMENT(#7,#2);
#41= IFCWALLSTANDARDCASE('qlFKOJYzX2C5hBXMIXX5q3',$,'Room as-built_0',$,$,#40,#39,$);
#42= IFCMATERIAL('Wall');
#43= IFCMATERIALLAYER(#42,0.0500000000000,$);
#44= IFCMATERIALLAYERSET((#43),'Wall 50mm');
#45= IFCMATERIALLAYERSETUSAGE(#44,.AXIS2.,.POSITIVE.,-0.0250000000000);
#46= IFCRELASSOCIATESMATERIAL('ZFzVMqU7c3fCrQybnIKCb3',$,$,$,(#41),#45);
#47= IFCCARTESIANPOINT((9.66069152831,7.09499605406));
#48= IFCCARTESIANPOINT((9.63595576921,7.13844881256));
#49= IFCCARTESIANPOINT((9.17406397529,6.87551397159));
#50= IFCCARTESIANPOINT((9.19879973439,6.83206121309));
#51= IFCPOLYLINE((#47,#48,#49,#50,#47));
#52= IFCARBITRARYCLOSEDPROFILEDEF(.AREA.,$,#51);
#53= IFCCARTESIANPOINT((0.00000000000,0.00000000000,7.46964580058));
#54= IFCAXIS2PLACEMENT3D(#53,$,$);
#55= IFCEXTRUDEDAREASOLID(#52,#54,#8,2.32886874879);
#56= IFCSHAPEREPRESENTATION(#5,'Body','SweptSolid',(#55));
#57= IFCCARTESIANPOINT((9.64832364876,7.11672243331));
#58= IFCCARTESIANPOINT((9.18643185484,6.85378759234));
#59= IFCPOLYLINE((#57,#58));
#60= IFCSHAPEREPRESENTATION(#4,'Axis','Curve2D',(#59));
#61= IFCPRODUCTDEFINITIONSHAPE($,$,(#60,#56));
#62= IFCLOCALPLACEMENT(#7,#2);
#63= IFCWALLSTANDARDCASE('Ak8Vd1qEkQB6R8I10xlXn2',$,'Room as-built_1',$,$,#62,#61,$);
#64= IFCMATERIALLAYERSETUSAGE(#44,.AXIS2.,.POSITIVE.,-0.0250000000000);
#65= IFCRELASSOCIATESMATERIAL('RkKvtyIX4b3ejt2JL$CuD0',$,$,$,(#63),#64);
#66= IFCCARTESIANPOINT((9.18770455345,6.82882000859));
#67= IFCCARTESIANPOINT((9.18515915623,6.87875517609));
#68= IFCCARTESIANPOINT((7.89000707101,6.81273604200));
#69= IFCCARTESIANPOINT((7.89255246823,6.76280087450));
#70= IFCPOLYLINE((#66,#67,#68,#69,#66));
#71= IFCARBITRARYCLOSEDPROFILEDEF(.AREA.,$,#70);
#72= IFCCARTESIANPOINT((0.00000000000,0.00000000000,7.46964580058));
#73= IFCAXIS2PLACEMENT3D(#72,$,$);
#74= IFCEXTRUDEDAREASOLID(#71,#73,#8,2.32886874879);
#75= IFCSHAPEREPRESENTATION(#5,'Body','SweptSolid',(#74));
#76= IFCCARTESIANPOINT((9.18643185484,6.85378759234));
#77= IFCCARTESIANPOINT((7.89127976962,6.78776845825));
#78= IFCPOLYLINE((#76,#77));
#79= IFCSHAPEREPRESENTATION(#4,'Axis','Curve2D',(#78));
#80= IFCPRODUCTDEFINITIONSHAPE($,$,(#79,#75));
#81= IFCLOCALPLACEMENT(#7,#2);
#82= IFCWALLSTANDARDCASE('gXTkmOdXlAsdkHMhbm0ln2',$,'Room as-built_2',$,$,#81,#80,$);
#83= IFCMATERIALLAYERSETUSAGE(#44,.AXIS2.,.POSITIVE.,-0.0250000000000);
#84= IFCRELASSOCIATESMATERIAL('h8nZAvA8NGnLmAvPHljqg0',$,$,$,(#82),#83);
#85= IFCCARTESIANPOINT((7.86642479504,6.79045736858));
#86= IFCCARTESIANPOINT((7.91613474420,6.78507954791));
#87= IFCCARTESIANPOINT((7.97319414232,7.31250877090));
#88= IFCCARTESIANPOINT((7.92348419317,7.31788659158));
#89= IFCPOLYLINE((#85,#86,#87,#88,#85));
#90= IFCARBITRARYCLOSEDPROFILEDEF(.AREA.,$,#89);
#91= IFCCARTESIANPOINT((0.00000000000,0.00000000000,7.46964580058));
#92= IFCAXIS2PLACEMENT3D(#91,$,$);
#93= IFCEXTRUDEDAREASOLID(#90,#92,#8,2.32886874879);
#94= IFCSHAPEREPRESENTATION(#5,'Body','SweptSolid',(#93));
#95= IFCCARTESIANPOINT((7.89127976962,6.78776845825));
#96= IFCCARTESIANPOINT((7.94833916774,7.31519768124));
#97= IFCPOLYLINE((#95,#96));
#98= IFCSHAPEREPRESENTATION(#4,'Axis','Curve2D',(#97));
#99= IFCPRODUCTDEFINITIONSHAPE($,$,(#98,#94));
#100= IFCLOCALPLACEMENT(#7,#2);
#101= IFCWALLSTANDARDCASE('QY_HbApCFXpfxgWL$N$F11',$,'Room as-built_3',$,$,#100,#99,$);
#102= IFCMATERIALLAYERSETUSAGE(#44,.AXIS2.,.POSITIVE.,-0.0250000000000);
#103= IFCRELASSOCIATESMATERIAL('ihLVjDS9iZzR9lrhG$goL1',$,$,$,(#101),#102);
#104= IFCCARTESIANPOINT((7.92350214347,7.31234772942));
#105= IFCCARTESIANPOINT((7.97317619202,7.31804763305));
#106= IFCCARTESIANPOINT((7.89557374673,7.99434461703));
#107= IFCCARTESIANPOINT((7.84589969819,7.98864471340));
#108= IFCPOLYLINE((#104,#105,#106,#107,#104));
#109= IFCARBITRARYCLOSEDPROFILEDEF(.AREA.,$,#108);
#110= IFCCARTESIANPOINT((0.00000000000,0.00000000000,7.46964580058));
#111= IFCAXIS2PLACEMENT3D(#110,$,$);
#112= IFCEXTRUDEDAREASOLID(#109,#111,#8,2.32886874879);
#113= IFCSHAPEREPRESENTATION(#5,'Body','SweptSolid',(#112));
#114= IFCCARTESIANPOINT((7.94833916774,7.31519768124));
#115= IFCCARTESIANPOINT((7.87073672246,7.99149466522));
#116= IFCPOLYLINE((#114,#115));
#117= IFCSHAPEREPRESENTATION(#4,'Axis','Curve2D',(#116));
#118= IFCPRODUCTDEFINITIONSHAPE($,$,(#117,#113));
#119= IFCLOCALPLACEMENT(#7,#2);
#120= IFCWALLSTANDARDCASE('egn996k0oJoasCNaceD_d1',$,'Room as-built_4',$,$,#119,#118,$);
#121= IFCMATERIALLAYERSETUSAGE(#44,.AXIS2.,.POSITIVE.,-0.0250000000000);
#122= IFCRELASSOCIATESMATERIAL('4yRAVBaHJXG7N13TmzURA1',$,$,$,(#120),#121);
#123= IFCCARTESIANPOINT((7.87826387853,7.96765474236));
#124= IFCCARTESIANPOINT((7.86320956639,8.01533458807));
#125= IFCCARTESIANPOINT((6.94914481409,7.72673012862));
#126= IFCCARTESIANPOINT((6.96419912623,7.67905028292));
#127= IFCPOLYLINE((#123,#124,#125,#126,#123));
#128= IFCARBITRARYCLOSEDPROFILEDEF(.AREA.,$,#127);
#129= IFCCARTESIANPOINT((0.00000000000,0.00000000000,7.46964580058));
#130= IFCAXIS2PLACEMENT3D(#129,$,$);
#131= IFCEXTRUDEDAREASOLID(#128,#130,#8,2.32886874879);
#132= IFCSHAPEREPRESENTATION(#5,'Body','SweptSolid',(#131));
#133= IFCCARTESIANPOINT((7.87073672246,7.99149466522));
#134= IFCCARTESIANPOINT((6.95667197016,7.70289020577));
#135= IFCPOLYLINE((#133,#134));
#136= IFCSHAPEREPRESENTATION(#4,'Axis','Curve2D',(#135));
#137= IFCPRODUCTDEFINITIONSHAPE($,$,(#136,#132));
#138= IFCLOCALPLACEMENT(#7,#2);
#139= IFCWALLSTANDARDCASE('dVO$QylLMbXUl9N4b7J973',$,'Room as-built_5',$,$,#138,#137,$);
#140= IFCMATERIALLAYERSETUSAGE(#44,.AXIS2.,.POSITIVE.,-0.0250000000000);
#141= IFCRELASSOCIATESMATERIAL('VsVD03kyXvp9MOQnWWM3I0',$,$,$,(#139),#140);
#142= IFCCARTESIANPOINT((6.93197447425,7.69901287473));
#143= IFCCARTESIANPOINT((6.98136946606,7.70676753681));
#144= IFCCARTESIANPOINT((6.91286771067,8.14310423452));
#145= IFCCARTESIANPOINT((6.86347271886,8.13534957243));
#146= IFCPOLYLINE((#142,#143,#144,#145,#142));
#147= IFCARBITRARYCLOSEDPROFILEDEF(.AREA.,$,#146);
#148= IFCCARTESIANPOINT((0.00000000000,0.00000000000,7.46964580058));
#149= IFCAXIS2PLACEMENT3D(#148,$,$);
#150= IFCEXTRUDEDAREASOLID(#147,#149,#8,2.32886874879);
#151= IFCSHAPEREPRESENTATION(#5,'Body','SweptSolid',(#150));
#152= IFCCARTESIANPOINT((6.95667197016,7.70289020577));
#153= IFCCARTESIANPOINT((6.88817021477,8.13922690348));
#154= IFCPOLYLINE((#152,#153));
#155= IFCSHAPEREPRESENTATION(#4,'Axis','Curve2D',(#154));
#156= IFCPRODUCTDEFINITIONSHAPE($,$,(#155,#151));
#157= IFCLOCALPLACEMENT(#7,#2);
#158= IFCWALLSTANDARDCASE('$r5Zvb1$H4WJYz4o3Qy_h0',$,'Room as-built_6',$,$,#157,#156,$);
#159= IFCMATERIALLAYERSETUSAGE(#44,.AXIS2.,.POSITIVE.,-0.0250000000000);
#160= IFCRELASSOCIATESMATERIAL('HAcD$wY1iyHj3qCuGAT1G3',$,$,$,(#158),#159);
#161= IFCCARTESIANPOINT((6.86320427208,8.13792240904));
#162= IFCCARTESIANPOINT((6.91313615746,8.14053139792));
#163= IFCCARTESIANPOINT((6.81741471319,9.97248714987));
#164= IFCCARTESIANPOINT((6.76748282781,9.96987816099));
#165= IFCPOLYLINE((#161,#162,#163,#164,#161));
#166= IFCARBITRARYCLOSEDPROFILEDEF(.AREA.,$,#165);
#167= IFCCARTESIANPOINT((0.00000000000,0.00000000000,7.46964580058));
#168= IFCAXIS2PLACEMENT3D(#167,$,$);
#169= IFCEXTRUDEDAREASOLID(#166,#168,#8,2.32886874879);
#170= IFCSHAPEREPRESENTATION(#5,'Body','SweptSolid',(#169));
#171= IFCCARTESIANPOINT((6.88817021477,8.13922690348));
#172= IFCCARTESIANPOINT((6.79244877050,9.97118265543));
#173= IFCPOLYLINE((#171,#172));
#174= IFCSHAPEREPRESENTATION(#4,'Axis','Curve2D',(#173));
#175= IFCPRODUCTDEFINITIONSHAPE($,$,(#174,#170));
#176= IFCLOCALPLACEMENT(#7,#2);
#177= IFCWALLSTANDARDCASE('L09iL7rQY_SSppCXCrE2_2',$,'Room as-built_7',$,$,#176,#175,$);
#178= IFCMATERIALLAYERSETUSAGE(#44,.AXIS2.,.POSITIVE.,-0.0250000000000);
#179= IFCRELASSOCIATESMATERIAL('L233vQ0_6NDhpAr6eiuWJ3',$,$,$,(#177),#178);
#180= IFCCARTESIANPOINT((6.76757568720,9.96866676055));
#181= IFCCARTESIANPOINT((6.81732185380,9.97369855031));
#182= IFCCARTESIANPOINT((6.75772035807,10.5629413593));
#183= IFCCARTESIANPOINT((6.70797419147,10.5579095695));
#184= IFCPOLYLINE((#180,#181,#182,#183,#180));
#185= IFCARBITRARYCLOSEDPROFILEDEF(.AREA.,$,#184);
#186= IFCCARTESIANPOINT((0.00000000000,0.00000000000,7.46964580058));
#187= IFCAXIS2PLACEMENT3D(#186,$,$);
#188= IFCEXTRUDEDAREASOLID(#185,#187,#8,2.32886874879);
#189= IFCSHAPEREPRESENTATION(#5,'Body','SweptSolid',(#188));
#190= IFCCARTESIANPOINT((6.79244877050,9.97118265543));
#191= IFCCARTESIANPOINT((6.73284727477,10.5604254644));
#192= IFCPOLYLINE((#190,#191));
#193= IFCSHAPEREPRESENTATION(#4,'Axis','Curve2D',(#192));
#194= IFCPRODUCTDEFINITIONSHAPE($,$,(#193,#189));
#195= IFCLOCALPLACEMENT(#7,#2);
#196= IFCWALLSTANDARDCASE('F2k3m8BtATTg2IbLIVOan1',$,'Room as-built_8',$,$,#195,#194,$);
#197= IFCMATERIALLAYERSETUSAGE(#44,.AXIS2.,.POSITIVE.,-0.0250000000000);
#198= IFCRELASSOCIATESMATERIAL('$iUcLioz4BL9NwM$KM3hY1',$,$,$,(#196),#197);
#199= IFCCARTESIANPOINT((6.73593625098,10.5356170339));
#200= IFCCARTESIANPOINT((6.72975829856,10.5852338950));
#201= IFCCARTESIANPOINT((5.77000528311,10.4657320093));
#202= IFCCARTESIANPOINT((5.77618323552,10.4161151482));
#203= IFCPOLYLINE((#199,#200,#201,#202,#199));
#204= IFCARBITRARYCLOSEDPROFILEDEF(.AREA.,$,#203);
#205= IFCCARTESIANPOINT((0.00000000000,0.00000000000,7.46964580058));
#206= IFCAXIS2PLACEMENT3D(#205,$,$);
#207= IFCEXTRUDEDAREASOLID(#204,#206,#8,2.32886874879);
#208= IFCSHAPEREPRESENTATION(#5,'Body','SweptSolid',(#207));
#209= IFCCARTESIANPOINT((6.73284727477,10.5604254644));
#210= IFCCARTESIANPOINT((5.77309425931,10.4409235788));
#211= IFCPOLYLINE((#209,#210));
#212= IFCSHAPEREPRESENTATION(#4,'Axis','Curve2D',(#211));
#213= IFCPRODUCTDEFINITIONSHAPE($,$,(#212,#208));
#214= IFCLOCALPLACEMENT(#7,#2);
#215= IFCWALLSTANDARDCASE('tW$6ZtdFjP$dKdC0OxiuG0',$,'Room as-built_9',$,$,#214,#213,$);
#216= IFCMATERIALLAYERSETUSAGE(#44,.AXIS2.,.POSITIVE.,-0.0250000000000);
#217= IFCRELASSOCIATESMATERIAL('jB4O8w5ho$tmyq8n3AC4O1',$,$,$,(#215),#216);
#218= IFCCARTESIANPOINT((5.74818549719,10.4430574882));
#219= IFCCARTESIANPOINT((5.79800302144,10.4387896694));
#220= IFCCARTESIANPOINT((5.95045893240,12.2183816253));
#221= IFCCARTESIANPOINT((5.90064140815,12.2226494441));
#222= IFCPOLYLINE((#218,#219,#220,#221,#218));
#223= IFCARBITRARYCLOSEDPROFILEDEF(.AREA.,$,#222);
#224= IFCCARTESIANPOINT((0.00000000000,0.00000000000,7.46964580058));
#225= IFCAXIS2PLACEMENT3D(#224,$,$);
#226= IFCEXTRUDEDAREASOLID(#223,#225,#8,2.32886874879);
#227= IFCSHAPEREPRESENTATION(#5,'Body','SweptSolid',(#226));
#228= IFCCARTESIANPOINT((5.77309425931,10.4409235788));
#229= IFCCARTESIANPOINT((5.92555017028,12.2205155347));
#230= IFCPOLYLINE((#228,#229));
#231= IFCSHAPEREPRESENTATION(#4,'Axis','Curve2D',(#230));
#232= IFCPRODUCTDEFINITIONSHAPE($,$,(#231,#227));
#233= IFCLOCALPLACEMENT(#7,#2);
#234= IFCWALLSTANDARDCASE('T8BRiYyySOYlraLEK2cz42',$,'Room as-built_10',$,$,#233,#232,$);
#235= IFCMATERIALLAYERSETUSAGE(#44,.AXIS2.,.POSITIVE.,-0.0250000000000);
#236= IFCRELASSOCIATESMATERIAL('JBe3g6PShHSbPzoYJ5PTh0',$,$,$,(#234),#235);
#237= IFCCARTESIANPOINT((5.94595136510,12.2349651454));
#238= IFCCARTESIANPOINT((5.90514897545,12.2060659240));
#239= IFCCARTESIANPOINT((6.24088372533,11.7320469224));
#240= IFCCARTESIANPOINT((6.28168611498,11.7609461438));
#241= IFCPOLYLINE((#237,#238,#239,#240,#237));
#242= IFCARBITRARYCLOSEDPROFILEDEF(.AREA.,$,#241);
#243= IFCCARTESIANPOINT((0.00000000000,0.00000000000,7.46964580058));
#244= IFCAXIS2PLACEMENT3D(#243,$,$);
#245= IFCEXTRUDEDAREASOLID(#242,#244,#8,2.32886874879);
#246= IFCSHAPEREPRESENTATION(#5,'Body','SweptSolid',(#245));
#247= IFCCARTESIANPOINT((5.92555017028,12.2205155347));
#248= IFCCARTESIANPOINT((6.26128492015,11.7464965331));
#249= IFCPOLYLINE((#247,#248));
#250= IFCSHAPEREPRESENTATION(#4,'Axis','Curve2D',(#249));
#251= IFCPRODUCTDEFINITIONSHAPE($,$,(#250,#246));
#252= IFCLOCALPLACEMENT(#7,#2);
#253= IFCWALLSTANDARDCASE('FdSSJgtdHpaoqQnVpXN9Q3',$,'Room as-built_11',$,$,#252,#251,$);
#254= IFCMATERIALLAYERSETUSAGE(#44,.AXIS2.,.POSITIVE.,-0.0250000000000);
#255= IFCRELASSOCIATESMATERIAL('j59Y3EKu8Dd7avujKvO8b1',$,$,$,(#253),#254);
#256= IFCCARTESIANPOINT((6.25024558108,11.7689271593));
#257= IFCCARTESIANPOINT((6.27232425923,11.7240659069));
#258= IFCCARTESIANPOINT((6.90479618360,12.0353399641));
#259= IFCCARTESIANPOINT((6.88271750545,12.0802012165));
#260= IFCPOLYLINE((#256,#257,#258,#259,#256));
#261= IFCARBITRARYCLOSEDPROFILEDEF(.AREA.,$,#260);
#262= IFCCARTESIANPOINT((0.00000000000,0.00000000000,7.46964580058));
#263= IFCAXIS2PLACEMENT3D(#262,$,$);
#264= IFCEXTRUDEDAREASOLID(#261,#263,#8,2.32886874879);
#265= IFCSHAPEREPRESENTATION(#5,'Body','SweptSolid',(#264));
#266= IFCCARTESIANPOINT((6.26128492015,11.7464965331));
#267= IFCCARTESIANPOINT((6.89375684452,12.0577705903));
#268= IFCPOLYLINE((#266,#267));
#269= IFCSHAPEREPRESENTATION(#4,'Axis','Curve2D',(#268));
#270= IFCPRODUCTDEFINITIONSHAPE($,$,(#269,#265));
#271= IFCLOCALPLACEMENT(#7,#2);
#272= IFCWALLSTANDARDCASE('5hlJTkd0AblEJk_0t0hYi0',$,'Room as-built_12',$,$,#271,#270,$);
#273= IFCMATERIALLAYERSETUSAGE(#44,.AXIS2.,.POSITIVE.,-0.0250000000000);
#274= IFCRELASSOCIATESMATERIAL('awOSL0FUD9Z2UJ8y_ja$H3',$,$,$,(#272),#273);
#275= IFCCARTESIANPOINT((6.91585290444,12.0460759703));
#276= IFCCARTESIANPOINT((6.87166078460,12.0694652103));
#277= IFCCARTESIANPOINT((6.59705911345,11.5506270608));
#278= IFCCARTESIANPOINT((6.64125123329,11.5272378208));
#279= IFCPOLYLINE((#275,#276,#277,#278,#275));
#280= IFCARBITRARYCLOSEDPROFILEDEF(.AREA.,$,#279);
#281= IFCCARTESIANPOINT((0.00000000000,0.00000000000,7.46964580058));
#282= IFCAXIS2PLACEMENT3D(#281,$,$);
#283= IFCEXTRUDEDAREASOLID(#280,#282,#8,2.32886874879);
#284= IFCSHAPEREPRESENTATION(#5,'Body','SweptSolid',(#283));
#285= IFCCARTESIANPOINT((6.89375684452,12.0577705903));
#286= IFCCARTESIANPOINT((6.61915517337,11.5389324408));
#287= IFCPOLYLINE((#285,#286));
#288= IFCSHAPEREPRESENTATION(#4,'Axis','Curve2D',(#287));
#289= IFCPRODUCTDEFINITIONSHAPE($,$,(#288,#284));
#290= IFCLOCALPLACEMENT(#7,#2);
#291= IFCWALLSTANDARDCASE('DQqIg_mFkv893uV1GEXgR2',$,'Room as-built_13',$,$,#290,#289,$);
#292= IFCMATERIALLAYERSETUSAGE(#44,.AXIS2.,.POSITIVE.,-0.0250000000000);
#293= IFCRELASSOCIATESMATERIAL('SsNpg0m9N0NHVuZngIvhk2',$,$,$,(#291),#292);
#294= IFCCARTESIANPOINT((6.61726663547,11.5638610072));
#295= IFCCARTESIANPOINT((6.62104371127,11.5140038744));
#296= IFCCARTESIANPOINT((11.0163553484,11.8469838164));
#297= IFCCARTESIANPOINT((11.0125782726,11.8968409492));
#298= IFCPOLYLINE((#294,#295,#296,#297,#294));
#299= IFCARBITRARYCLOSEDPROFILEDEF(.AREA.,$,#298);
#300= IFCCARTESIANPOINT((0.00000000000,0.00000000000,7.46964580058));
#301= IFCAXIS2PLACEMENT3D(#300,$,$);
#302= IFCEXTRUDEDAREASOLID(#299,#301,#8,2.32886874879);
#303= IFCSHAPEREPRESENTATION(#5,'Body','SweptSolid',(#302));
#304= IFCCARTESIANPOINT((6.61915517337,11.5389324408));
#305= IFCCARTESIANPOINT((11.0144668105,11.8719123828));
#306= IFCPOLYLINE((#304,#305));
#307= IFCSHAPEREPRESENTATION(#4,'Axis','Curve2D',(#306));
#308= IFCPRODUCTDEFINITIONSHAPE($,$,(#307,#303));
#309= IFCLOCALPLACEMENT(#7,#2);
#310= IFCWALLSTANDARDCASE('s6jQifcNoos38ATx_L4Wz3',$,'Room as-built_14',$,$,#309,#308,$);
#311= IFCMATERIALLAYERSETUSAGE(#44,.AXIS2.,.POSITIVE.,-0.0250000000000);
#312= IFCRELASSOCIATESMATERIAL('Svy5Gke_SS5dAugx4WfXt0',$,$,$,(#310),#311);
#313= IFCCARTESIANPOINT((11.0393440422,11.8743869224));
#314= IFCCARTESIANPOINT((10.9895895789,11.8694378432));
#315= IFCCARTESIANPOINT((11.2388420517,9.36363374460));
#316= IFCCARTESIANPOINT((11.2885965150,9.36858282382));
#317= IFCPOLYLINE((#313,#314,#315,#316,#313));
#318= IFCARBITRARYCLOSEDPROFILEDEF(.AREA.,$,#317);
#319= IFCCARTESIANPOINT((0.00000000000,0.00000000000,7.46964580058));
#320= IFCAXIS2PLACEMENT3D(#319,$,$);
#321= IFCEXTRUDEDAREASOLID(#318,#320,#8,2.32886874879);
#322= IFCSHAPEREPRESENTATION(#5,'Body','SweptSolid',(#321));
#323= IFCCARTESIANPOINT((11.0144668105,11.8719123828));
#324= IFCCARTESIANPOINT((11.2637192834,9.36610828421));
#325= IFCPOLYLINE((#323,#324));
#326= IFCSHAPEREPRESENTATION(#4,'Axis','Curve2D',(#325));
#327= IFCPRODUCTDEFINITIONSHAPE($,$,(#326,#322));
#328= IFCLOCALPLACEMENT(#7,#2);
#329= IFCWALLSTANDARDCASE('I1_v7OmTpepA1vxX3A21m0',$,'Room as-built_15',$,$,#328,#327,$);
#330= IFCMATERIALLAYERSETUSAGE(#44,.AXIS2.,.POSITIVE.,-0.0250000000000);
#331= IFCRELASSOCIATESMATERIAL('ran45H55h4Xw6V8_CbEgj2',$,$,$,(#329),#330);
#332= IFCCARTESIANPOINT((11.2886171498,9.36385079785));
#333= IFCCARTESIANPOINT((11.2388214169,9.36836577057));
#334= IFCCARTESIANPOINT((11.0276122060,7.03893476294));
#335= IFCCARTESIANPOINT((11.0774079389,7.03441979021));
#336= IFCPOLYLINE((#332,#333,#334,#335,#332));
#337= IFCARBITRARYCLOSEDPROFILEDEF(.AREA.,$,#336);
#338= IFCCARTESIANPOINT((0.00000000000,0.00000000000,7.46964580058));
#339= IFCAXIS2PLACEMENT3D(#338,$,$);
#340= IFCEXTRUDEDAREASOLID(#337,#339,#8,2.32886874879);
#341= IFCSHAPEREPRESENTATION(#5,'Body','SweptSolid',(#340));
#342= IFCCARTESIANPOINT((11.2637192834,9.36610828421));
#343= IFCCARTESIANPOINT((11.0525100725,7.03667727657));
#344= IFCPOLYLINE((#342,#343));
#345= IFCSHAPEREPRESENTATION(#4,'Axis','Curve2D',(#344));
#346= IFCPRODUCTDEFINITIONSHAPE($,$,(#345,#341));
#347= IFCLOCALPLACEMENT(#7,#2);
#348= IFCWALLSTANDARDCASE('67CK6srIaUmi3EVjMFJoi2',$,'Room as-built_16',$,$,#347,#346,$);
#349= IFCMATERIALLAYERSETUSAGE(#44,.AXIS2.,.POSITIVE.,-0.0250000000000);
#350= IFCRELASSOCIATESMATERIAL('aTFW2f4HhdvNR2q_equn30',$,$,$,(#348),#349);
#351= IFCCARTESIANPOINT((11.0569082717,7.01206720051));
#352= IFCCARTESIANPOINT((11.0481118732,7.06128735263));
#353= IFCCARTESIANPOINT((10.1231044208,6.89597428956));
#354= IFCCARTESIANPOINT((10.1319008193,6.84675413745));
#355= IFCPOLYLINE((#351,#352,#353,#354,#351));
#356= IFCARBITRARYCLOSEDPROFILEDEF(.AREA.,$,#355);
#357= IFCCARTESIANPOINT((0.00000000000,0.00000000000,7.46964580058));
#358= IFCAXIS2PLACEMENT3D(#357,$,$);
#359= IFCEXTRUDEDAREASOLID(#356,#358,#8,2.32886874879);
#360= IFCSHAPEREPRESENTATION(#5,'Body','SweptSolid',(#359));
#361= IFCCARTESIANPOINT((11.0525100725,7.03667727657));
#362= IFCCARTESIANPOINT((10.1275026200,6.87136421351));
#363= IFCPOLYLINE((#361,#362));
#364= IFCSHAPEREPRESENTATION(#4,'Axis','Curve2D',(#363));
#365= IFCPRODUCTDEFINITIONSHAPE($,$,(#364,#360));
#366= IFCLOCALPLACEMENT(#7,#2);
#367= IFCWALLSTANDARDCASE('AvkZppjkYz2$Xev$y9ByD0',$,'Room as-built_17',$,$,#366,#365,$);
#368= IFCMATERIALLAYERSETUSAGE(#44,.AXIS2.,.POSITIVE.,-0.0250000000000);
#369= IFCRELASSOCIATESMATERIAL('OHzvOTnlZZToVVTsge$1i2',$,$,$,(#367),#368);
#370= IFCCARTESIANPOINT((9.30900057477,5.64249533691));
#371= IFCCARTESIANPOINT((9.30528538500,5.59263355430));
#372= IFCCARTESIANPOINT((9.98710931093,5.54183101298));
#373= IFCCARTESIANPOINT((9.99082450070,5.59169279559));
#374= IFCPOLYLINE((#370,#371,#372,#373,#370));
#375= IFCARBITRARYCLOSEDPROFILEDEF(.AREA.,$,#374);
#376= IFCCARTESIANPOINT((0.00000000000,0.00000000000,7.46964580058));
#377= IFCAXIS2PLACEMENT3D(#376,$,$);
#378= IFCEXTRUDEDAREASOLID(#375,#377,#8,2.32886874879);
#379= IFCSHAPEREPRESENTATION(#5,'Body','SweptSolid',(#378));
#380= IFCCARTESIANPOINT((9.30714297989,5.61756444561));
#381= IFCCARTESIANPOINT((9.98896690582,5.56676190428));
#382= IFCPOLYLINE((#380,#381));
#383= IFCSHAPEREPRESENTATION(#4,'Axis','Curve2D',(#382));
#384= IFCPRODUCTDEFINITIONSHAPE($,$,(#383,#379));
#385= IFCLOCALPLACEMENT(#7,#2);
#386= IFCWALLSTANDARDCASE('RRQ8Gj73AxVJ7XvF1Ntci2',$,'Room as-built_0',$,$,#385,#384,$);
#387= IFCMATERIALLAYERSETUSAGE(#44,.AXIS2.,.POSITIVE.,-0.0250000000000);
#388= IFCRELASSOCIATESMATERIAL('B9c5EB3BHzv3mvl$MCffT0',$,$,$,(#386),#387);
#389= IFCCARTESIANPOINT((9.96719274212,5.55447834635));
#390= IFCCARTESIANPOINT((10.0107410695,5.57904546221));
#391= IFCCARTESIANPOINT((9.76819581199,6.00898768015));
#392= IFCCARTESIANPOINT((9.72464748461,5.98442056429));
#393= IFCPOLYLINE((#389,#390,#391,#392,#389));
#394= IFCARBITRARYCLOSEDPROFILEDEF(.AREA.,$,#393);
#395= IFCCARTESIANPOINT((0.00000000000,0.00000000000,7.46964580058));
#396= IFCAXIS2PLACEMENT3D(#395,$,$);
#397= IFCEXTRUDEDAREASOLID(#394,#396,#8,2.32886874879);
#398= IFCSHAPEREPRESENTATION(#5,'Body','SweptSolid',(#397));
#399= IFCCARTESIANPOINT((9.98896690582,5.56676190428));
#400= IFCCARTESIANPOINT((9.74642164830,5.99670412222));
#401= IFCPOLYLINE((#399,#400));
#402= IFCSHAPEREPRESENTATION(#4,'Axis','Curve2D',(#401));
#403= IFCPRODUCTDEFINITIONSHAPE($,$,(#402,#398));
#404= IFCLOCALPLACEMENT(#7,#2);
#405= IFCWALLSTANDARDCASE('q4I40Sv8Th9U_wwvUCBoq1',$,'Room as-built_1',$,$,#404,#403,$);
#406= IFCMATERIALLAYERSETUSAGE(#44,.AXIS2.,.POSITIVE.,-0.0250000000000);
#407= IFCRELASSOCIATESMATERIAL('ZvOCRiFMIQrW1idTEPzO$3',$,$,$,(#405),#406);
#408= IFCCARTESIANPOINT((9.75143461954,6.02119636832));
#409= IFCCARTESIANPOINT((9.74140867706,5.97221187611));
#410= IFCCARTESIANPOINT((10.3148568819,5.85484087848));
#411= IFCCARTESIANPOINT((10.3248828244,5.90382537069));
#412= IFCPOLYLINE((#408,#409,#410,#411,#408));
#413= IFCARBITRARYCLOSEDPROFILEDEF(.AREA.,$,#412);
#414= IFCCARTESIANPOINT((0.00000000000,0.00000000000,7.46964580058));
#415= IFCAXIS2PLACEMENT3D(#414,$,$);
#416= IFCEXTRUDEDAREASOLID(#413,#415,#8,2.32886874879);
#417= IFCSHAPEREPRESENTATION(#5,'Body','SweptSolid',(#416));
#418= IFCCARTESIANPOINT((9.74642164830,5.99670412222));
#419= IFCCARTESIANPOINT((10.3198698531,5.87933312459));
#420= IFCPOLYLINE((#418,#419));
#421= IFCSHAPEREPRESENTATION(#4,'Axis','Curve2D',(#420));
#422= IFCPRODUCTDEFINITIONSHAPE($,$,(#421,#417));
#423= IFCLOCALPLACEMENT(#7,#2);
#424= IFCWALLSTANDARDCASE('_NfR7I9HXhRxjyhLCfN_$0',$,'Room as-built_2',$,$,#423,#422,$);
#425= IFCMATERIALLAYERSETUSAGE(#44,.AXIS2.,.POSITIVE.,-0.0250000000000);
#426= IFCRELASSOCIATESMATERIAL('XIOTQEG54Z$qImZoNSuxi2',$,$,$,(#424),#425);
#427= IFCCARTESIANPOINT((10.2949805903,5.87698267836));
#428= IFCCARTESIANPOINT((10.3447591159,5.88168357082));
#429= IFCCARTESIANPOINT((10.2571480547,6.80941154920));
#430= IFCCARTESIANPOINT((10.2073695291,6.80471065674));
#431= IFCPOLYLINE((#427,#428,#429,#430,#427));
#432= IFCARBITRARYCLOSEDPROFILEDEF(.AREA.,$,#431);
#433= IFCCARTESIANPOINT((0.00000000000,0.00000000000,7.46964580058));
#434= IFCAXIS2PLACEMENT3D(#433,$,$);
#435= IFCEXTRUDEDAREASOLID(#432,#434,#8,2.32886874879);
#436= IFCSHAPEREPRESENTATION(#5,'Body','SweptSolid',(#435));
#437= IFCCARTESIANPOINT((10.3198698531,5.87933312459));
#438= IFCCARTESIANPOINT((10.2322587919,6.80706110297));
#439= IFCPOLYLINE((#437,#438));
#440= IFCSHAPEREPRESENTATION(#4,'Axis','Curve2D',(#439));
#441= IFCPRODUCTDEFINITIONSHAPE($,$,(#440,#436));
#442= IFCLOCALPLACEMENT(#7,#2);
#443= IFCWALLSTANDARDCASE('CDnswKJPT4OLQCs9lsyfA0',$,'Room as-built_3',$,$,#442,#441,$);
#444= IFCMATERIALLAYERSETUSAGE(#44,.AXIS2.,.POSITIVE.,-0.0250000000000);
#445= IFCRELASSOCIATESMATERIAL('1UL02PkEb73cneU7B9_ej1',$,$,$,(#443),#444);
#446= IFCCARTESIANPOINT((10.2199448273,6.78530412070));
#447= IFCCARTESIANPOINT((10.2445727564,6.82881808524));
#448= IFCCARTESIANPOINT((9.47026689149,7.26705785772));
#449= IFCCARTESIANPOINT((9.44563896242,7.22354389319));
#450= IFCPOLYLINE((#446,#447,#448,#449,#446));
#451= IFCARBITRARYCLOSEDPROFILEDEF(.AREA.,$,#450);
#452= IFCCARTESIANPOINT((0.00000000000,0.00000000000,7.46964580058));
#453= IFCAXIS2PLACEMENT3D(#452,$,$);
#454= IFCEXTRUDEDAREASOLID(#451,#453,#8,2.32886874879);
#455= IFCSHAPEREPRESENTATION(#5,'Body','SweptSolid',(#454));
#456= IFCCARTESIANPOINT((10.2322587919,6.80706110297));
#457= IFCCARTESIANPOINT((9.45795292695,7.24530087546));
#458= IFCPOLYLINE((#456,#457));
#459= IFCSHAPEREPRESENTATION(#4,'Axis','Curve2D',(#458));
#460= IFCPRODUCTDEFINITIONSHAPE($,$,(#459,#455));
#461= IFCLOCALPLACEMENT(#7,#2);
#462= IFCWALLSTANDARDCASE('hmKu7NwD7pLrN1i8qBuat2',$,'Room as-built_4',$,$,#461,#460,$);
#463= IFCMATERIALLAYERSETUSAGE(#44,.AXIS2.,.POSITIVE.,-0.0250000000000);
#464= IFCRELASSOCIATESMATERIAL('TS1B3BspqndPoWM5rrlo$3',$,$,$,(#462),#463);
#465= IFCCARTESIANPOINT((9.48258337929,7.24101825735));
#466= IFCCARTESIANPOINT((9.43332247462,7.24958349356));
#467= IFCCARTESIANPOINT((9.38065930016,6.94670385839));
#468= IFCCARTESIANPOINT((9.42992020483,6.93813862219));
#469= IFCPOLYLINE((#465,#466,#467,#468,#465));
#470= IFCARBITRARYCLOSEDPROFILEDEF(.AREA.,$,#469);
#471= IFCCARTESIANPOINT((0.00000000000,0.00000000000,7.46964580058));
#472= IFCAXIS2PLACEMENT3D(#471,$,$);
#473= IFCEXTRUDEDAREASOLID(#470,#472,#8,2.32886874879);
#474= IFCSHAPEREPRESENTATION(#5,'Body','SweptSolid',(#473));
#475= IFCCARTESIANPOINT((9.45795292695,7.24530087546));
#476= IFCCARTESIANPOINT((9.40528975250,6.94242124029));
#477= IFCPOLYLINE((#475,#476));
#478= IFCSHAPEREPRESENTATION(#4,'Axis','Curve2D',(#477));
#479= IFCPRODUCTDEFINITIONSHAPE($,$,(#478,#474));
#480= IFCLOCALPLACEMENT(#7,#2);
#481= IFCWALLSTANDARDCASE('abUlr2vXG1OTZCkqvIIto2',$,'Room as-built_5',$,$,#480,#479,$);
#482= IFCMATERIALLAYERSETUSAGE(#44,.AXIS2.,.POSITIVE.,-0.0250000000000);
#483= IFCRELASSOCIATESMATERIAL('nve4zdUMXzeXNx66Qj2FE0',$,$,$,(#481),#482);
#484= IFCCARTESIANPOINT((9.41055483669,6.91798195044));
#485= IFCCARTESIANPOINT((9.40002466830,6.96686053014));
#486= IFCCARTESIANPOINT((9.07424354136,6.89667579598));
#487= IFCCARTESIANPOINT((9.08477370974,6.84779721627));
#488= IFCPOLYLINE((#484,#485,#486,#487,#484));
#489= IFCARBITRARYCLOSEDPROFILEDEF(.AREA.,$,#488);
#490= IFCCARTESIANPOINT((0.00000000000,0.00000000000,7.46964580058));
#491= IFCAXIS2PLACEMENT3D(#490,$,$);
#492= IFCEXTRUDEDAREASOLID(#489,#491,#8,2.32886874879);
#493= IFCSHAPEREPRESENTATION(#5,'Body','SweptSolid',(#492));
#494= IFCCARTESIANPOINT((9.40528975250,6.94242124029));
#495= IFCCARTESIANPOINT((9.07950862555,6.87223650612));
#496= IFCPOLYLINE((#494,#495));
#497= IFCSHAPEREPRESENTATION(#4,'Axis','Curve2D',(#496));
#498= IFCPRODUCTDEFINITIONSHAPE($,$,(#497,#493));
#499= IFCLOCALPLACEMENT(#7,#2);
#500= IFCWALLSTANDARDCASE('iIAZTJYGar6_U7JttzTKm2',$,'Room as-built_6',$,$,#499,#498,$);
#501= IFCMATERIALLAYERSETUSAGE(#44,.AXIS2.,.POSITIVE.,-0.0250000000000);
#502= IFCRELASSOCIATESMATERIAL('IBvNEOccgEgaZEpWOKbKi0',$,$,$,(#500),#501);
#503= IFCCARTESIANPOINT((9.10218308110,6.88276594417));
#504= IFCCARTESIANPOINT((9.05683417000,6.86170706808));
#505= IFCCARTESIANPOINT((9.20931131264,6.53335752296));
#506= IFCCARTESIANPOINT((9.25466022374,6.55441639905));
#507= IFCPOLYLINE((#503,#504,#505,#506,#503));
#508= IFCARBITRARYCLOSEDPROFILEDEF(.AREA.,$,#507);
#509= IFCCARTESIANPOINT((0.00000000000,0.00000000000,7.46964580058));
#510= IFCAXIS2PLACEMENT3D(#509,$,$);
#511= IFCEXTRUDEDAREASOLID(#508,#510,#8,2.32886874879);
#512= IFCSHAPEREPRESENTATION(#5,'Body','SweptSolid',(#511));
#513= IFCCARTESIANPOINT((9.07950862555,6.87223650612));
#514= IFCCARTESIANPOINT((9.23198576819,6.54388696100));
#515= IFCPOLYLINE((#513,#514));
#516= IFCSHAPEREPRESENTATION(#4,'Axis','Curve2D',(#515));
#517= IFCPRODUCTDEFINITIONSHAPE($,$,(#516,#512));
#518= IFCLOCALPLACEMENT(#7,#2);
#519= IFCWALLSTANDARDCASE('kJZyyZo6RLe8NyHI4dY7J3',$,'Room as-built_7',$,$,#518,#517,$);
#520= IFCMATERIALLAYERSETUSAGE(#44,.AXIS2.,.POSITIVE.,-0.0250000000000);
#521= IFCRELASSOCIATESMATERIAL('BSBMArVWleNjfz1lE$d0q3',$,$,$,(#519),#520);
#522= IFCCARTESIANPOINT((9.25690388606,6.54590869342));
#523= IFCCARTESIANPOINT((9.20706765032,6.54186522858));
#524= IFCCARTESIANPOINT((9.28222486202,5.61554271319));
#525= IFCCARTESIANPOINT((9.33206109775,5.61958617803));
#526= IFCPOLYLINE((#522,#523,#524,#525,#522));
#527= IFCARBITRARYCLOSEDPROFILEDEF(.AREA.,$,#526);
#528= IFCCARTESIANPOINT((0.00000000000,0.00000000000,7.46964580058));
#529= IFCAXIS2PLACEMENT3D(#528,$,$);
#530= IFCEXTRUDEDAREASOLID(#527,#529,#8,2.32886874879);
#531= IFCSHAPEREPRESENTATION(#5,'Body','SweptSolid',(#530));
#532= IFCCARTESIANPOINT((9.23198576819,6.54388696100));
#533= IFCCARTESIANPOINT((9.30714297989,5.61756444561));
#534= IFCPOLYLINE((#532,#533));
#535= IFCSHAPEREPRESENTATION(#4,'Axis','Curve2D',(#534));
#536= IFCPRODUCTDEFINITIONSHAPE($,$,(#535,#531));
#537= IFCLOCALPLACEMENT(#7,#2);
#538= IFCWALLSTANDARDCASE('y0CwMMk2wZxYc6wdjhy$b1',$,'Room as-built_8',$,$,#537,#536,$);
#539= IFCMATERIALLAYERSETUSAGE(#44,.AXIS2.,.POSITIVE.,-0.0250000000000);
#540= IFCRELASSOCIATESMATERIAL('B54OlFq$F3tWffBvqR$rh3',$,$,$,(#538),#539);
#541= IFCRELCONTAINEDINSPATIALSTRUCTURE('SVaar0jRyEE078awBvKlf3',$,$,$,(#41,#63,#82,#101,#120,#139,#158,#177,#196,#215,#234,#253,#272,#291,#310,#329,#348,#367,#386,#405,#424,#443,#462,#481,#500,#519,#538),#23);
ENDSEC;

END-ISO-10303-21;