0
SECTION
2
HEADER
9
$ACADVER
1
AC1015
9
$INSBASE
10
0
20
0
30
0
9
$EXTMIN
10
-0.096405741485599
20
-5.221738096518316
30
-0.4078542002182974
9
$EXTMAX
10
5.39421928256534
20
1.4320155338828053
30
-0.4078542002182974
9
$INSUNITS
70
6
9
$CLAYER
8
0
9
$HANDSEED
5
FFFF
0
ENDSEC
0
SECTION
2
CLASSES
0
CLASS
1
ACDBDICTIONARYWDFLT
2
AcDbDictionaryWithDefault
3
ObjectDBX Classes
90
0
280
0
281
0
0
CLASS
1
ACDBPLACEHOLDER
2
AcDbPlaceHolder
3
ObjectDBX Classes
90
0
280
0
281
0
0
ENDSEC
0
SECTION
2
TABLES
0
TABLE
2
VPORT
5
5
330
0
100
AcDbSymbolTable
70
0
0
ENDTAB
0
TABLE
2
LTYPE
5
6
330
0
100
AcDbSymbolTable
70
4
0
LTYPE
5
10
330
6
100
AcDbSymbolTableRecord
100
AcDbLinetypeTableRecord
2
ByBlock
70
0
3

72
65
73
0
40
0
0
LTYPE
5
11
330
6
100
AcDbSymbolTableRecord
100
AcDbLinetypeTableRecord
2
ByLayer
70
0
3

72
65
73
0
40
0
0
LTYPE
5
12
330
6
100
AcDbSymbolTableRecord
100
AcDbLinetypeTableRecord
2
Continuous
70
0
3
Solid line
72
65
73
0
40
0
0
LTYPE
5
13
330
6
100
AcDbSymbolTableRecord
100
AcDbLinetypeTableRecord
2
DASHED
70
0
3
Dashed __ __ __ __ __ __ __ __
72
65
73
2
40
0.3
49
0.2
74
0
49
-0.1
74
0
0
ENDTAB
0
TABLE
2
LAYER
5
7
330
0
100
AcDbSymbolTable
70
2
0
LAYER
5
14
330
7
100
AcDbSymbolTableRecord
100
AcDbLayerTableRecord
2
0
70
0
62
7
6
Continuous
370
-3
390
4
0
LAYER
5
15
330
7
100
AcDbSymbolTableRecord
100
AcDbLayerTableRecord
2
Floor -0.41m_Rooms
70
0
62
190
6
Continuous
370
-3
390
4
0
ENDTAB
0
TABLE
2
STYLE
5
8
330
0
100
AcDbSymbolTable
70
0
0
ENDTAB
0
TABLE
2
VIEW
5
9
330
0
100
AcDbSymbolTable
70
0
0
ENDTAB
0
TABLE
2
UCS
5
A
330
0
100
AcDbSymbolTable
70
0
0
ENDTAB
0
TABLE
2
APPID
5
B
330
0
100
AcDbSymbolTable
70
1
0
APPID
5
16
330
B
100
AcDbSymbolTableRecord
100
AcDbRegAppTableRecord
2
ACAD
70
0
0
ENDTAB
0
TABLE
2
DIMSTYLE
5
C
330
0
100
AcDbSymbolTable
70
0
100
AcDbDimStyleTable
0
ENDTAB
0
TABLE
2
BLOCK_RECORD
5
D
330
0
100
AcDbSymbolTable
70
2
0
BLOCK_RECORD
5
E
330
D
100
AcDbSymbolTableRecord
100
AcDbBlockTableRecord
2
*MODEL_SPACE
0
BLOCK_RECORD
5
F
330
D
100
AcDbSymbolTableRecord
100
AcDbBlockTableRecord
2
*PAPER_SPACE
0
ENDTAB
0
ENDSEC
0
SECTION
2
BLOCKS
0
BLOCK
5
17
330
E
100
AcDbEntity
8
0
100
AcDbBlockBegin
2
*MODEL_SPACE
70
0
10
0
20
0
30
0
3
*MODEL_SPACE
1

0
ENDBLK
5
18
330
E
100
AcDbEntity
8
0
100
AcDbBlockEnd
0
BLOCK
5
19
330
F
100
AcDbEntity
8
0
100
AcDbBlockBegin
2
*PAPER_SPACE
70
0
10
0
20
0
30
0
3
*PAPER_SPACE
1

0
ENDBLK
5
1A
330
F
100
AcDbEntity
8
0
100
AcDbBlockEnd
0
ENDSEC
0
SECTION
2
ENTITIES
0
POLYLINE
5
1B
330
E
100
AcDbEntity
8
Floor -0.41m_Rooms
6
Continuous
62
190
100
AcDb3dPolyline
66
1
10
0
20
0
30
0
70
9
0
VERTEX
5
1C
330
1B
100
AcDbEntity
8
Floor -0.41m_Rooms
100
AcDbVertex
100
AcDb3dPolylineVertex
10
4.258002619230522
20
-3.9171357872944217
30
-0.4078542002182974
70
32
0
VERTEX
5
1D
330
1B
100
AcDbEntity
8
Floor -0.41m_Rooms
100
AcDbVertex
100
AcDb3dPolylineVertex
10
3.7788236479607793
20
-3.6717775674930273
30
-0.4078542002182974
70
32
0
VERTEX
5
1E
330
1B
100
AcDbEntity
8
Floor -0.41m_Rooms
100
AcDbVertex
100
AcDb3dPolylineVertex
10
3.316931854039888
20
-3.934712408459675
30
-0.4078542002182974
70
32
0
VERTEX
5
1F
330
1B
100
AcDbEntity
8
Floor -0.41m_Rooms
100
AcDbVertex
100
AcDb3dPolylineVertex
10
2.021779768818652
20
-4.000731542552689
30
-0.4078542002182974
70
32
0
VERTEX
5
20
330
1B
100
AcDbEntity
8
Floor -0.41m_Rooms
100
AcDbVertex
100
AcDb3dPolylineVertex
10
2.0788391669448565
20
-3.4733023195615425
30
-0.4078542002182974
70
32
0
VERTEX
5
21
330
1B
100
AcDbEntity
8
Floor -0.41m_Rooms
100
AcDbVertex
100
AcDb3dPolylineVertex
10
2.0012367216576976
20
-2.79700533558476
30
-0.4078542002182974
70
32
0
VERTEX
5
22
330
1B
100
AcDbEntity
8
Floor -0.41m_Rooms
100
AcDbVertex
100
AcDb3dPolylineVertex
10
1.0871719693585025
20
-3.085609795029919
30
-0.4078542002182974
70
32
0
VERTEX
5
23
330
1B
100
AcDbEntity
8
Floor -0.41m_Rooms
100
AcDbVertex
100
AcDb3dPolylineVertex
10
1.0186702139687078
20
-2.649273097323026
30
-0.4078542002182974
70
32
0
VERTEX
5
24
330
1B
100
AcDbEntity
8
Floor -0.41m_Rooms
100
AcDbVertex
100
AcDb3dPolylineVertex
10
0.9229487696997882
20
-0.8173173453692044
30
-0.4078542002182974
70
32
0
VERTEX
5
25
330
1B
100
AcDbEntity
8
Floor -0.41m_Rooms
100
AcDbVertex
100
AcDb3dPolylineVertex
10
0.8633472739716321
20
-0.22807453638455577
30
-0.4078542002182974
70
32
0
VERTEX
5
26
330
1B
100
AcDbEntity
8
Floor -0.41m_Rooms
100
AcDbVertex
100
AcDb3dPolylineVertex
10
-0.096405741485599
20
-0.34757642201444394
30
-0.4078542002182974
70
32
0
VERTEX
5
27
330
1B
100
AcDbEntity
8
Floor -0.41m_Rooms
100
AcDbVertex
100
AcDb3dPolylineVertex
10
0.05605016947687247
20
1.4320155338828053
30
-0.4078542002182974
70
32
0
VERTEX
5
28
330
1B
100
AcDbEntity
8
Floor -0.41m_Rooms
100
AcDbVertex
100
AcDb3dPolylineVertex
10
0.39178491935483173
20
0.9579965323000366
30
-0.4078542002182974
70
32
0
VERTEX
5
29
330
1B
100
AcDbEntity
8
Floor -0.41m_Rooms
100
AcDbVertex
100
AcDb3dPolylineVertex
10
1.0242568437238546
20
1.2692705895051022
30
-0.4078542002182974
70
32
0
VERTEX
5
2A
330
1B
100
AcDbEntity
8
Floor -0.41m_Rooms
100
AcDbVertex
100
AcDb3dPolylineVertex
10
0.7496551725694207
20
0.7504324399947757
30
-0.4078542002182974
70
32
0
VERTEX
5
2B
330
1B
100
AcDbEntity
8
Floor -0.41m_Rooms
100
AcDbVertex
100
AcDb3dPolylineVertex
10
5.1449668097462595
20
1.083412382000155
30
-0.4078542002182974
70
32
0
VERTEX
5
2C
330
1B
100
AcDbEntity
8
Floor -0.41m_Rooms
100
AcDbVertex
100
AcDb3dPolylineVertex
10
5.39421928256534
20
-1.4223917165909157
30
-0.4078542002182974
70
32
0
VERTEX
5
2D
330
1B
100
AcDbEntity
8
Floor -0.41m_Rooms
100
AcDbVertex
100
AcDb3dPolylineVertex
10
5.183010071666747
20
-3.751822724226728
30
-0.4078542002182974
70
32
0
SEQEND
5
2E
330
1B
100
AcDbEntity
8
Floor -0.41m_Rooms
0
POLYLINE
5
2F
330
E
100
AcDbEntity
8
Floor -0.41m_Rooms
6
Continuous
62
190
100
AcDb3dPolyline
66
1
10
0
20
0
30
0
70
9
0
VERTEX
5
30
330
2F
100
AcDbEntity
8
Floor -0.41m_Rooms
100
AcDbVertex
100
AcDb3dPolylineVertex
10
3.43764297908592
20
-5.170935555191789
30
-0.4078542002182974
70
32
0
VERTEX
5
31
330
2F
100
AcDbEntity
8
Floor -0.41m_Rooms
100
AcDbVertex
100
AcDb3dPolylineVertex
10
4.119466905017202
20
-5.221738096518316
30
-0.4078542002182974
70
32
0
VERTEX
5
32
330
2F
100
AcDbEntity
8
Floor -0.41m_Rooms
100
AcDbVertex
100
AcDb3dPolylineVertex
10
3.8769216474994455
20
-4.791795878583812
30
-0.4078542002182974
70
32
0
VERTEX
5
33
330
2F
100
AcDbEntity
8
Floor -0.41m_Rooms
100
AcDbVertex
100
AcDb3dPolylineVertex
10
4.450369852309464
20
-4.909166876211568
30
-0.4078542002182974
70
32
0
VERTEX
5
34
330
2F
100
AcDbEntity
8
Floor -0.41m_Rooms
100
AcDbVertex
100
AcDb3dPolylineVertex
10
4.362758791059997
20
-3.9814388978289093
30
-0.4078542002182974
70
32
0
VERTEX
5
35
330
2F
100
AcDbEntity
8
Floor -0.41m_Rooms
100
AcDbVertex
100
AcDb3dPolylineVertex
10
3.588452926154689
20
-3.5431991253445414
30
-0.4078542002182974
70
32
0
VERTEX
5
36
330
2F
100
AcDbEntity
8
Floor -0.41m_Rooms
100
AcDbVertex
100
AcDb3dPolylineVertex
10
3.535789751695452
20
-3.846078760510988
30
-0.4078542002182974
70
32
0
VERTEX
5
37
330
2F
100
AcDbEntity
8
Floor -0.41m_Rooms
100
AcDbVertex
100
AcDb3dPolylineVertex
10
3.2100086247520316
20
-3.9162634946760178
30
-0.4078542002182974
70
32
0
VERTEX
5
38
330
2F
100
AcDbEntity
8
Floor -0.41m_Rooms
100
AcDbVertex
100
AcDb3dPolylineVertex
10
3.3624857673909663
20
-4.244613039796742
30
-0.4078542002182974
70
32
0
SEQEND
5
39
330
2F
100
AcDbEntity
8
Floor -0.41m_Rooms
0
ENDSEC
0
SECTION
2
OBJECTS
0
DICTIONARY
5
1
330
0
100
AcDbDictionary
281
1
3
ACAD_GROUP
350
2
3
ACAD_PLOTSTYLENAME
350
3
0
DICTIONARY
5
2
330
1
100
AcDbDictionary
281
1
0
ACDBDICTIONARYWDFLT
5
3
330
1
100
AcDbDictionary
281
1
3
Normal
350
4
100
AcDbDictionaryWithDefault
340
4
0
ACDBPLACEHOLDER
5
4
330
3
0
ENDSEC
0
EOF