ISO-10303-21;
HEADER;
FILE_DESCRIPTION(('ViewDefinition [CoordinationView_V2.0]'), '2;1');
FILE_NAME(
/* name */ 'walls_export.ifc',
/* time_stamp */ '2026-10-02T04:38:04',
/* author */ ('Pointorama'),
/* organization */ (),
/* preprocessor_version */ '',
/* originating_system */ '',
/* authorization */ 'None');

FILE_SCHEMA(('IFC2X3'));
ENDSEC;

DATA;
#1= IFCCARTESIANPOINT((0.00000000000,0.00000000000,0.00000000000));
#2= IFCAXIS2PLACEMENT3D(#1,$,$);
#3= IFCGEOMETRICREPRESENTATIONCONTEXT($,'Model',3,0.000100000000000,#2,$);
#4= IFCGEOMETRICREPRESENTATIONSUBCONTEXT('Axis','Model',*,*,*,*,#3,$,.MODEL_VIEW.,$);
#5= IFCGEOMETRICREPRESENTATIONSUBCONTEXT('Body','Model',*,*,*,*,#3,$,.MODEL_VIEW.,$);
#6= IFCLOCALPLACEMENT($,#2);
#7= IFCLOCALPLACEMENT(#6,#2);
#8= IFCDIRECTION((0.00000000000,0.00000000000,1.00000000000));
#9= IFCSIUNIT(*,.LENGTHUNIT.,$,.METRE.);
#10= IFCSIUNIT(*,.PLANEANGLEUNIT.,$,.RADIAN.);
#11= IFCSIUNIT(*,.TIMEUNIT.,$,.SECOND.);
#12= IFCUNITASSIGNMENT((#9,#10,#11));
#13= IFCPROJECT('W5IxPfUMUQX0hwzCwUTbH1',$,'Ifc Project',$,$,$,$,(#3),#12);
#14= IFCSITE('p8OqsvIqBeNkiEANT7Aj82',$,'Ifc Site',$,$,#6,$,$,.ELEMENT.,$,$,-3.43250000040,$,$);
#15= IFCBUILDING('3EdJn3MHoja5s8PHt1iZS0',$,'Ifc Building',$,$,#7,$,$,.ELEMENT.,$,$,$);
#16= IFCRELAGGREGATES('lbkkq3L$heZYAk2I0Aim32',$,$,$,#13,(#14));
#17= IFCRELAGGREGATES('D9mgN2JH1LeOD4IH4xxAS1',$,$,$,#14,(#15));
#18= IFCPROPERTYSINGLEVALUE('Eastings',$,IFCREAL(-4.84250000040),$);
#19= IFCPROPERTYSINGLEVALUE('Northings',$,IFCREAL(-1.62200000040),$);
#20= IFCPROPERTYSINGLEVALUE('OrthogonalHeight',$,IFCREAL(-3.43250000040),$);
#21= IFCPROPERTYSET('ZU6Eo63QBBZFC_H49Wgmx0',$,'ePset_MapConversion',$,(#18,#19,#20));
#22= IFCRELDEFINESBYPROPERTIES('2LXU8_c9ZkMpJhd0W6dht2',$,$,$,(#14),#21);
#23= IFCBUILDINGSTOREY('$FWSY_FRPgjxmwT13Ez9$0',$,'Floor -0.67m',$,$,$,$,$,.ELEMENT.,2.76175934280);
#24= IFCRELAGGREGATES('ElwDtjeG7WSdnzNbhQHZK2',$,$,$,#15,(#23));
#25= IFCCARTESIANPOINT((6.26933480087,3.83179931403));
#26= IFCCARTESIANPOINT((6.21934228203,3.83093440934));
#27= IFCCARTESIANPOINT((6.23328365027,3.02510675920));
#28= IFCCARTESIANPOINT((6.28327616910,3.02597166389));
#29= IFCPOLYLINE((#25,#26,#27,#28,#25));
#30= IFCARBITRARYCLOSEDPROFILEDEF(.AREA.,$,#29);
#31= IFCCARTESIANPOINT((0.00000000000,0.00000000000,2.76175934280));
#32= IFCAXIS2PLACEMENT3D(#31,$,$);
#33= IFCEXTRUDEDAREASOLID(#30,#32,#8,2.49548096570);
#34= IFCSHAPEREPRESENTATION(#5,'Body','SweptSolid',(#33));
#35= IFCCARTESIANPOINT((6.24433854145,3.83136686169));
#36= IFCCARTESIANPOINT((6.25827990969,3.02553921155));
#37= IFCPOLYLINE((#35,#36));
#38= IFCSHAPEREPRESENTATION(#4,'Axis','Curve2D',(#37));
#39= IFCPRODUCTDEFINITIONSHAPE($,$,(#38,#34));
#40= IFCLOCALPLACEMENT(#7,#2);
#41= IFCWALLSTANDARDCASE('ILVyGnTDZrBBuWT1MxinG3',$,'Room as-built_0',$,$,#40,#39,$);
#42= IFCMATERIAL('Wall');
#43= IFCMATERIALLAYER(#42,0.0500000000000,$);
#44= IFCMATERIALLAYERSET((#43),'Wall 50mm');
#45= IFCMATERIALLAYERSETUSAGE(#44,.AXIS2.,.POSITIVE.,-0.0250000000000);
#46= IFCRELASSOCIATESMATERIAL('K0t$TSwMb2rdiO4kb7lCm2',$,$,$,(#41),#45);
#47= IFCCARTESIANPOINT((6.26183064340,3.00079265037));
#48= IFCCARTESIANPOINT((6.25472917597,3.05028577273));
#49= IFCCARTESIANPOINT((5.88516570296,2.99725935525));
#50= IFCCARTESIANPOINT((5.89226717040,2.94776623290));
#51= IFCPOLYLINE((#47,#48,#49,#50,#47));
#52= IFCARBITRARYCLOSEDPROFILEDEF(.AREA.,$,#51);
#53= IFCCARTESIANPOINT((0.00000000000,0.00000000000,2.76175934280));
#54= IFCAXIS2PLACEMENT3D(#53,$,$);
#55= IFCEXTRUDEDAREASOLID(#52,#54,#8,2.49548096570);
#56= IFCSHAPEREPRESENTATION(#5,'Body','SweptSolid',(#55));
#57= IFCCARTESIANPOINT((6.25827990969,3.02553921155));
#58= IFCCARTESIANPOINT((5.88871643668,2.97251279407));
#59= IFCPOLYLINE((#57,#58));
#60= IFCSHAPEREPRESENTATION(#4,'Axis','Curve2D',(#59));
#61= IFCPRODUCTDEFINITIONSHAPE($,$,(#60,#56));
#62= IFCLOCALPLACEMENT(#7,#2);
#63= IFCWALLSTANDARDCASE('w3jVDr2CLkVNqk7P3wwbj0',$,'Room as-built_1',$,$,#62,#61,$);
#64= IFCMATERIALLAYERSETUSAGE(#44,.AXIS2.,.POSITIVE.,-0.0250000000000);
#65= IFCRELASSOCIATESMATERIAL('3_4IQ5gybPzFicHAuvZcF1',$,$,$,(#63),#64);
#66= IFCCARTESIANPOINT((5.91362584679,2.97038646200));
#67= IFCCARTESIANPOINT((5.86380702657,2.97463912615));
#68= IFCCARTESIANPOINT((5.80260180690,2.25763638923));
#69= IFCCARTESIANPOINT((5.85242062711,2.25338372508));
#70= IFCPOLYLINE((#66,#67,#68,#69,#66));
#71= IFCARBITRARYCLOSEDPROFILEDEF(.AREA.,$,#70);
#72= IFCCARTESIANPOINT((0.00000000000,0.00000000000,2.76175934280));
#73= IFCAXIS2PLACEMENT3D(#72,$,$);
#74= IFCEXTRUDEDAREASOLID(#71,#73,#8,2.49548096570);
#75= IFCSHAPEREPRESENTATION(#5,'Body','SweptSolid',(#74));
#76= IFCCARTESIANPOINT((5.88871643668,2.97251279407));
#77= IFCCARTESIANPOINT((5.82751121701,2.25551005715));
#78= IFCPOLYLINE((#76,#77));
#79= IFCSHAPEREPRESENTATION(#4,'Axis','Curve2D',(#78));
#80= IFCPRODUCTDEFINITIONSHAPE($,$,(#79,#75));
#81= IFCLOCALPLACEMENT(#7,#2);
#82= IFCWALLSTANDARDCASE('fT2N5i0TGbFENZdBH4DWV3',$,'Room as-built_2',$,$,#81,#80,$);
#83= IFCMATERIALLAYERSETUSAGE(#44,.AXIS2.,.POSITIVE.,-0.0250000000000);
#84= IFCRELASSOCIATESMATERIAL('QN2JDBpzvCm_C1OCu0ix51',$,$,$,(#82),#83);
#85= IFCCARTESIANPOINT((5.84995413870,2.24449573620));
#86= IFCCARTESIANPOINT((5.80506829532,2.26652437811));
#87= IFCCARTESIANPOINT((5.61770644952,1.88475347725));
#88= IFCCARTESIANPOINT((5.66259229290,1.86272483534));
#89= IFCPOLYLINE((#85,#86,#87,#88,#85));
#90= IFCARBITRARYCLOSEDPROFILEDEF(.AREA.,$,#89);
#91= IFCCARTESIANPOINT((0.00000000000,0.00000000000,2.76175934280));
#92= IFCAXIS2PLACEMENT3D(#91,$,$);
#93= IFCEXTRUDEDAREASOLID(#90,#92,#8,2.49548096570);
#94= IFCSHAPEREPRESENTATION(#5,'Body','SweptSolid',(#93));
#95= IFCCARTESIANPOINT((5.82751121701,2.25551005715));
#96= IFCCARTESIANPOINT((5.64014937121,1.87373915629));
#97= IFCPOLYLINE((#95,#96));
#98= IFCSHAPEREPRESENTATION(#4,'Axis','Curve2D',(#97));
#99= IFCPRODUCTDEFINITIONSHAPE($,$,(#98,#94));
#100= IFCLOCALPLACEMENT(#7,#2);
#101= IFCWALLSTANDARDCASE('vshrltf3Dkaw8eU4Zoufl0',$,'Room as-built_3',$,$,#100,#99,$);
#102= IFCMATERIALLAYERSETUSAGE(#44,.AXIS2.,.POSITIVE.,-0.0250000000000);
#103= IFCRELASSOCIATESMATERIAL('_hQQLre82RwtF2wKzvIgP3',$,$,$,(#101),#102);
#104= IFCCARTESIANPOINT((5.64012302611,1.84873917017));
#105= IFCCARTESIANPOINT((5.64017571631,1.89873914241));
#106= IFCCARTESIANPOINT((4.57285992693,1.89986388459));
#107= IFCCARTESIANPOINT((4.57280723673,1.84986391236));
#108= IFCPOLYLINE((#104,#105,#106,#107,#104));
#109= IFCARBITRARYCLOSEDPROFILEDEF(.AREA.,$,#108);
#110= IFCCARTESIANPOINT((0.00000000000,0.00000000000,2.76175934280));
#111= IFCAXIS2PLACEMENT3D(#110,$,$);
#112= IFCEXTRUDEDAREASOLID(#109,#111,#8,2.49548096570);
#113= IFCSHAPEREPRESENTATION(#5,'Body','SweptSolid',(#112));
#114= IFCCARTESIANPOINT((5.64014937121,1.87373915629));
#115= IFCCARTESIANPOINT((4.57283358183,1.87486389847));
#116= IFCPOLYLINE((#114,#115));
#117= IFCSHAPEREPRESENTATION(#4,'Axis','Curve2D',(#116));
#118= IFCPRODUCTDEFINITIONSHAPE($,$,(#117,#113));
#119= IFCLOCALPLACEMENT(#7,#2);
#120= IFCWALLSTANDARDCASE('84xhNttbAUkbdhuddmW$U3',$,'Room as-built_4',$,$,#119,#118,$);
#121= IFCMATERIALLAYERSETUSAGE(#44,.AXIS2.,.POSITIVE.,-0.0250000000000);
#122= IFCRELASSOCIATESMATERIAL('BYsuGrDIGMopcVNyREtjI1',$,$,$,(#120),#121);
#123= IFCCARTESIANPOINT((4.54798660173,1.87762570589));
#124= IFCCARTESIANPOINT((4.59768056192,1.87210209106));
#125= IFCCARTESIANPOINT((4.62277015875,2.09782409786));
#126= IFCCARTESIANPOINT((4.57307619856,2.10334771270));
#127= IFCPOLYLINE((#123,#124,#125,#126,#123));
#128= IFCARBITRARYCLOSEDPROFILEDEF(.AREA.,$,#127);
#129= IFCCARTESIANPOINT((0.00000000000,0.00000000000,2.76175934280));
#130= IFCAXIS2PLACEMENT3D(#129,$,$);
#131= IFCEXTRUDEDAREASOLID(#128,#130,#8,2.49548096570);
#132= IFCSHAPEREPRESENTATION(#5,'Body','SweptSolid',(#131));
#133= IFCCARTESIANPOINT((4.57283358183,1.87486389847));
#134= IFCCARTESIANPOINT((4.59792317865,2.10058590528));
#135= IFCPOLYLINE((#133,#134));
#136= IFCSHAPEREPRESENTATION(#4,'Axis','Curve2D',(#135));
#137= IFCPRODUCTDEFINITIONSHAPE($,$,(#136,#132));
#138= IFCLOCALPLACEMENT(#7,#2);
#139= IFCWALLSTANDARDCASE('ajd$IGOZkz0JkslnnGsAO0',$,'Room as-built_5',$,$,#138,#137,$);
#140= IFCMATERIALLAYERSETUSAGE(#44,.AXIS2.,.POSITIVE.,-0.0250000000000);
#141= IFCRELASSOCIATESMATERIAL('Ye_SCnaImO8pjSb1$ei0O2',$,$,$,(#139),#140);
#142= IFCCARTESIANPOINT((4.59962875871,2.12552765736));
#143= IFCCARTESIANPOINT((4.59621759860,2.07564415320));
#144= IFCCARTESIANPOINT((4.90937419863,2.05422971325));
#145= IFCCARTESIANPOINT((4.91278535874,2.10411321741));
#146= IFCPOLYLINE((#142,#143,#144,#145,#142));
#147= IFCARBITRARYCLOSEDPROFILEDEF(.AREA.,$,#146);
#148= IFCCARTESIANPOINT((0.00000000000,0.00000000000,2.76175934280));
#149= IFCAXIS2PLACEMENT3D(#148,$,$);
#150= IFCEXTRUDEDAREASOLID(#147,#149,#8,2.49548096570);
#151= IFCSHAPEREPRESENTATION(#5,'Body','SweptSolid',(#150));
#152= IFCCARTESIANPOINT((4.59792317865,2.10058590528));
#153= IFCCARTESIANPOINT((4.91107977869,2.07917146533));
#154= IFCPOLYLINE((#152,#153));
#155= IFCSHAPEREPRESENTATION(#4,'Axis','Curve2D',(#154));
#156= IFCPRODUCTDEFINITIONSHAPE($,$,(#155,#151));
#157= IFCLOCALPLACEMENT(#7,#2);
#158= IFCWALLSTANDARDCASE('X5tHEGeHqSbVUO0cQGtDP2',$,'Room as-built_6',$,$,#157,#156,$);
#159= IFCMATERIALLAYERSETUSAGE(#44,.AXIS2.,.POSITIVE.,-0.0250000000000);
#160= IFCRELASSOCIATESMATERIAL('jlMyVbq4tV8U6nIleGuJ_3',$,$,$,(#158),#159);
#161= IFCCARTESIANPOINT((4.88662123536,2.07399655871));
#162= IFCCARTESIANPOINT((4.93553832201,2.08434637195));
#163= IFCCARTESIANPOINT((4.89727256746,2.26520463366));
#164= IFCCARTESIANPOINT((4.84835548081,2.25485482042));
#165= IFCPOLYLINE((#161,#162,#163,#164,#161));
#166= IFCARBITRARYCLOSEDPROFILEDEF(.AREA.,$,#165);
#167= IFCCARTESIANPOINT((0.00000000000,0.00000000000,2.76175934280));
#168= IFCAXIS2PLACEMENT3D(#167,$,$);
#169= IFCEXTRUDEDAREASOLID(#166,#168,#8,2.49548096570);
#170= IFCSHAPEREPRESENTATION(#5,'Body','SweptSolid',(#169));
#171= IFCCARTESIANPOINT((4.91107977869,2.07917146533));
#172= IFCCARTESIANPOINT((4.87281402413,2.26002972704));
#173= IFCPOLYLINE((#171,#172));
#174= IFCSHAPEREPRESENTATION(#4,'Axis','Curve2D',(#173));
#175= IFCPRODUCTDEFINITIONSHAPE($,$,(#174,#170));
#176= IFCLOCALPLACEMENT(#7,#2);
#177= IFCWALLSTANDARDCASE('NttqxT3X_WJQ3N_WjqZgg1',$,'Room as-built_7',$,$,#176,#175,$);
#178= IFCMATERIALLAYERSETUSAGE(#44,.AXIS2.,.POSITIVE.,-0.0250000000000);
#179= IFCRELASSOCIATESMATERIAL('yqh$3z7cjCLc0G7XGsY9z1',$,$,$,(#177),#178);
#180= IFCCARTESIANPOINT((4.87193441525,2.23504520607));
#181= IFCCARTESIANPOINT((4.87369363302,2.28501424801));
#182= IFCCARTESIANPOINT((3.97852578009,2.31652966502));
#183= IFCCARTESIANPOINT((3.97676656232,2.26656062307));
#184= IFCPOLYLINE((#180,#181,#182,#183,#180));
#185= IFCARBITRARYCLOSEDPROFILEDEF(.AREA.,$,#184);
#186= IFCCARTESIANPOINT((0.00000000000,0.00000000000,2.76175934280));
#187= IFCAXIS2PLACEMENT3D(#186,$,$);
#188= IFCEXTRUDEDAREASOLID(#185,#187,#8,2.49548096570);
#189= IFCSHAPEREPRESENTATION(#5,'Body','SweptSolid',(#188));
#190= IFCCARTESIANPOINT((4.87281402413,2.26002972704));
#191= IFCCARTESIANPOINT((3.97764617120,2.29154514404));
#192= IFCPOLYLINE((#190,#191));
#193= IFCSHAPEREPRESENTATION(#4,'Axis','Curve2D',(#192));
#194= IFCPRODUCTDEFINITIONSHAPE($,$,(#193,#189));
#195= IFCLOCALPLACEMENT(#7,#2);
#196= IFCWALLSTANDARDCASE('aquRSmh75PLkXWHi6rA9Q0',$,'Room as-built_8',$,$,#195,#194,$);
#197= IFCMATERIALLAYERSETUSAGE(#44,.AXIS2.,.POSITIVE.,-0.0250000000000);
#198= IFCRELASSOCIATESMATERIAL('1dLOxk_pklVntXqdoQrXW3',$,$,$,(#196),#197);
#199= IFCCARTESIANPOINT((3.95265656177,2.29226585232));
#200= IFCCARTESIANPOINT((4.00263578064,2.29082443577));
#201= IFCCARTESIANPOINT((4.07664614427,4.85703623660));
#202= IFCCARTESIANPOINT((4.02666692540,4.85847765315));
#203= IFCPOLYLINE((#199,#200,#201,#202,#199));
#204= IFCARBITRARYCLOSEDPROFILEDEF(.AREA.,$,#203);
#205= IFCCARTESIANPOINT((0.00000000000,0.00000000000,2.76175934280));
#206= IFCAXIS2PLACEMENT3D(#205,$,$);
#207= IFCEXTRUDEDAREASOLID(#204,#206,#8,2.49548096570);
#208= IFCSHAPEREPRESENTATION(#5,'Body','SweptSolid',(#207));
#209= IFCCARTESIANPOINT((3.97764617120,2.29154514404));
#210= IFCCARTESIANPOINT((4.05165653484,4.85775694487));
#211= IFCPOLYLINE((#209,#210));
#212= IFCSHAPEREPRESENTATION(#4,'Axis','Curve2D',(#211));
#213= IFCPRODUCTDEFINITIONSHAPE($,$,(#212,#208));
#214= IFCLOCALPLACEMENT(#7,#2);
#215= IFCWALLSTANDARDCASE('iFpvs4KD3PGBr1sHPfNiy1',$,'Room as-built_9',$,$,#214,#213,$);
#216= IFCMATERIALLAYERSETUSAGE(#44,.AXIS2.,.POSITIVE.,-0.0250000000000);
#217= IFCRELASSOCIATESMATERIAL('8xSwBYiWqyiaw7Kcm$$in3',$,$,$,(#215),#216);
#218= IFCCARTESIANPOINT((4.05087533435,4.88274473641));
#219= IFCCARTESIANPOINT((4.05243773532,4.83276915334));
#220= IFCCARTESIANPOINT((6.00301905735,4.89375073610));
#221= IFCCARTESIANPOINT((6.00145665638,4.94372631917));
#222= IFCPOLYLINE((#218,#219,#220,#221,#218));
#223= IFCARBITRARYCLOSEDPROFILEDEF(.AREA.,$,#222);
#224= IFCCARTESIANPOINT((0.00000000000,0.00000000000,2.76175934280));
#225= IFCAXIS2PLACEMENT3D(#224,$,$);
#226= IFCEXTRUDEDAREASOLID(#223,#225,#8,2.49548096570);
#227= IFCSHAPEREPRESENTATION(#5,'Body','SweptSolid',(#226));
#228= IFCCARTESIANPOINT((4.05165653484,4.85775694487));
#229= IFCCARTESIANPOINT((6.00223785687,4.91873852763));
#230= IFCPOLYLINE((#228,#229));
#231= IFCSHAPEREPRESENTATION(#4,'Axis','Curve2D',(#230));
#232= IFCPRODUCTDEFINITIONSHAPE($,$,(#231,#227));
#233= IFCLOCALPLACEMENT(#7,#2);
#234= IFCWALLSTANDARDCASE('h67h4TU$GUbC3m9QIZwQ12',$,'Room as-built_10',$,$,#233,#232,$);
#235= IFCMATERIALLAYERSETUSAGE(#44,.AXIS2.,.POSITIVE.,-0.0250000000000);
#236= IFCRELASSOCIATESMATERIAL('Amnw8E6Ow1t3xzljCnMol1',$,$,$,(#234),#235);
#237= IFCCARTESIANPOINT((6.02722050302,4.91780718921));
#238= IFCCARTESIANPOINT((5.97725521071,4.91966986606));
#239= IFCCARTESIANPOINT((5.93687748921,3.83655947345));
#240= IFCCARTESIANPOINT((5.98684278152,3.83469679659));
#241= IFCPOLYLINE((#237,#238,#239,#240,#237));
#242= IFCARBITRARYCLOSEDPROFILEDEF(.AREA.,$,#241);
#243= IFCCARTESIANPOINT((0.00000000000,0.00000000000,2.76175934280));
#244= IFCAXIS2PLACEMENT3D(#243,$,$);
#245= IFCEXTRUDEDAREASOLID(#242,#244,#8,2.49548096570);
#246= IFCSHAPEREPRESENTATION(#5,'Body','SweptSolid',(#245));
#247= IFCCARTESIANPOINT((6.00223785687,4.91873852763));
#248= IFCCARTESIANPOINT((5.96186013536,3.83562813502));
#249= IFCPOLYLINE((#247,#248));
#250= IFCSHAPEREPRESENTATION(#4,'Axis','Curve2D',(#249));
#251= IFCPRODUCTDEFINITIONSHAPE($,$,(#250,#246));
#252= IFCLOCALPLACEMENT(#7,#2);
#253= IFCWALLSTANDARDCASE('k0_$rwD7oTiSppQ9EPQdU3',$,'Room as-built_11',$,$,#252,#251,$);
#254= IFCMATERIALLAYERSETUSAGE(#44,.AXIS2.,.POSITIVE.,-0.0250000000000);
#255= IFCRELASSOCIATESMATERIAL('rxZGJ0ho6Ofzg6aeoFwbe3',$,$,$,(#253),#254);
#256= IFCCARTESIANPOINT((5.96223722512,3.86062529092));
#257= IFCCARTESIANPOINT((5.96148304561,3.81063097911));
#258= IFCCARTESIANPOINT((6.24396145169,3.80636970579));
#259= IFCCARTESIANPOINT((6.24471563121,3.85636401759));
#260= IFCPOLYLINE((#256,#257,#258,#259,#256));
#261= IFCARBITRARYCLOSEDPROFILEDEF(.AREA.,$,#260);
#262= IFCCARTESIANPOINT((0.00000000000,0.00000000000,2.76175934280));
#263= IFCAXIS2PLACEMENT3D(#262,$,$);
#264= IFCEXTRUDEDAREASOLID(#261,#263,#8,2.49548096570);
#265= IFCSHAPEREPRESENTATION(#5,'Body','SweptSolid',(#264));
#266= IFCCARTESIANPOINT((5.96186013536,3.83562813502));
#267= IFCCARTESIANPOINT((6.24433854145,3.83136686169));
#268= IFCPOLYLINE((#266,#267));
#269= IFCSHAPEREPRESENTATION(#4,'Axis','Curve2D',(#268));
#270= IFCPRODUCTDEFINITIONSHAPE($,$,(#269,#265));
#271= IFCLOCALPLACEMENT(#7,#2);
#272= IFCWALLSTANDARDCASE('lS3Keu$5ir93EZ7L$oNq00',$,'Room as-built_12',$,$,#271,#270,$);
#273= IFCMATERIALLAYERSETUSAGE(#44,.AXIS2.,.POSITIVE.,-0.0250000000000);
#274= IFCRELASSOCIATESMATERIAL('ejtrb91VCiRyYLDOrQR1L3',$,$,$,(#272),#273);
#275= IFCRELCONTAINEDINSPATIALSTRUCTURE('yimmVoieAaz50QMoL40892',$,$,$,(#41,#63,#82,#101,#120,#139,#158,#177,#196,#215,#234,#253,#272),#23);
ENDSEC;

END-ISO-10303-21;