0
SECTION
2
HEADER
9
$ACADVER
1
AC1015
9
$INSBASE
10
0
20
0
30
0
9
$EXTMIN
10
-0.8648538291967685
20
0.25173915589255275
30
-0.6707406575975862
9
$EXTMAX
10
1.4157799092851435
20
3.296738527234946
30
-0.6707406575975862
9
$INSUNITS
70
6
9
$CLAYER
8
0
9
$HANDSEED
5
FFFF
0
ENDSEC
0
SECTION
2
CLASSES
0
CLASS
1
ACDBDICTIONARYWDFLT
2
AcDbDictionaryWithDefault
3
ObjectDBX Classes
90
0
280
0
281
0
0
CLASS
1
ACDBPLACEHOLDER
2
AcDbPlaceHolder
3
ObjectDBX Classes
90
0
280
0
281
0
0
ENDSEC
0
SECTION
2
TABLES
0
TABLE
2
VPORT
5
5
330
0
100
AcDbSymbolTable
70
0
0
ENDTAB
0
TABLE
2
LTYPE
5
6
330
0
100
AcDbSymbolTable
70
4
0
LTYPE
5
10
330
6
100
AcDbSymbolTableRecord
100
AcDbLinetypeTableRecord
2
ByBlock
70
0
3

72
65
73
0
40
0
0
LTYPE
5
11
330
6
100
AcDbSymbolTableRecord
100
AcDbLinetypeTableRecord
2
ByLayer
70
0
3

72
65
73
0
40
0
0
LTYPE
5
12
330
6
100
AcDbSymbolTableRecord
100
AcDbLinetypeTableRecord
2
Continuous
70
0
3
Solid line
72
65
73
0
40
0
0
LTYPE
5
13
330
6
100
AcDbSymbolTableRecord
100
AcDbLinetypeTableRecord
2
DASHED
70
0
3
Dashed __ __ __ __ __ __ __ __
72
65
73
2
40
0.3
49
0.2
74
0
49
-0.1
74
0
0
ENDTAB
0
TABLE
2
LAYER
5
7
330
0
100
AcDbSymbolTable
70
2
0
LAYER
5
14
330
7
100
AcDbSymbolTableRecord
100
AcDbLayerTableRecord
2
0
70
0
62
7
6
Continuous
370
-3
390
4
0
LAYER
5
15
330
7
100
AcDbSymbolTableRecord
100
AcDbLayerTableRecord
2
Floor -0.67m_Rooms
70
0
62
190
6
Continuous
370
-3
390
4
0
ENDTAB
0
TABLE
2
STYLE
5
8
330
0
100
AcDbSymbolTable
70
0
0
ENDTAB
0
TABLE
2
VIEW
5
9
330
0
100
AcDbSymbolTable
70
0
0
ENDTAB
0
TABLE
2
UCS
5
A
330
0
100
AcDbSymbolTable
70
0
0
ENDTAB
0
TABLE
2
APPID
5
B
330
0
100
AcDbSymbolTable
70
1
0
APPID
5
16
330
B
100
AcDbSymbolTableRecord
100
AcDbRegAppTableRecord
2
ACAD
70
0
0
ENDTAB
0
TABLE
2
DIMSTYLE
5
C
330
0
100
AcDbSymbolTable
70
0
100
AcDbDimStyleTable
0
ENDTAB
0
TABLE
2
BLOCK_RECORD
5
D
330
0
100
AcDbSymbolTable
70
2
0
BLOCK_RECORD
5
E
330
D
100
AcDbSymbolTableRecord
100
AcDbBlockTableRecord
2
*MODEL_SPACE
0
BLOCK_RECORD
5
F
330
D
100
AcDbSymbolTableRecord
100
AcDbBlockTableRecord
2
*PAPER_SPACE
0
ENDTAB
0
ENDSEC
0
SECTION
2
BLOCKS
0
BLOCK
5
17
330
E
100
AcDbEntity
8
0
100
AcDbBlockBegin
2
*MODEL_SPACE
70
0
10
0
20
0
30
0
3
*MODEL_SPACE
1

0
ENDBLK
5
18
330
E
100
AcDbEntity
8
0
100
AcDbBlockEnd
0
BLOCK
5
19
330
F
100
AcDbEntity
8
0
100
AcDbBlockBegin
2
*PAPER_SPACE
70
0
10
0
20
0
30
0
3
*PAPER_SPACE
1

0
ENDBLK
5
1A
330
F
100
AcDbEntity
8
0
100
AcDbBlockEnd
0
ENDSEC
0
SECTION
2
ENTITIES
0
POLYLINE
5
1B
330
E
100
AcDbEntity
8
Floor -0.67m_Rooms
6
Continuous
62
190
100
AcDb3dPolyline
66
1
10
0
20
0
30
0
70
9
0
VERTEX
5
1C
330
1B
100
AcDbEntity
8
Floor -0.67m_Rooms
100
AcDbVertex
100
AcDb3dPolylineVertex
10
1.4018385410516887
20
2.2093668612895234
30
-0.6707406575975862
70
32
0
VERTEX
5
1D
330
1B
100
AcDbEntity
8
Floor -0.67m_Rooms
100
AcDbVertex
100
AcDb3dPolylineVertex
10
1.4157799092851435
20
1.4035392111485754
30
-0.6707406575975862
70
32
0
VERTEX
5
1E
330
1B
100
AcDbEntity
8
Floor -0.67m_Rooms
100
AcDbVertex
100
AcDb3dPolylineVertex
10
1.0462164362803477
20
1.350512793673352
30
-0.6707406575975862
70
32
0
VERTEX
5
1F
330
1B
100
AcDbEntity
8
Floor -0.67m_Rooms
100
AcDbVertex
100
AcDb3dPolylineVertex
10
0.9850112166071949
20
0.6335100567525036
30
-0.6707406575975862
70
32
0
VERTEX
5
20
330
1B
100
AcDbEntity
8
Floor -0.67m_Rooms
100
AcDbVertex
100
AcDb3dPolylineVertex
10
0.7976493708121025
20
0.25173915589255275
30
-0.6707406575975862
70
32
0
VERTEX
5
21
330
1B
100
AcDbEntity
8
Floor -0.67m_Rooms
100
AcDbVertex
100
AcDb3dPolylineVertex
10
-0.26966641857159646
20
0.25286389807452636
30
-0.6707406575975862
70
32
0
VERTEX
5
22
330
1B
100
AcDbEntity
8
Floor -0.67m_Rooms
100
AcDbVertex
100
AcDb3dPolylineVertex
10
-0.2445768217459494
20
0.4785859048815393
30
-0.6707406575975862
70
32
0
VERTEX
5
23
330
1B
100
AcDbEntity
8
Floor -0.67m_Rooms
100
AcDbVertex
100
AcDb3dPolylineVertex
10
0.06857977828633066
20
0.4571714649287788
30
-0.6707406575975862
70
32
0
VERTEX
5
24
330
1B
100
AcDbEntity
8
Floor -0.67m_Rooms
100
AcDbVertex
100
AcDb3dPolylineVertex
10
0.03031402373245351
20
0.6380297266403536
30
-0.6707406575975862
70
32
0
VERTEX
5
25
330
1B
100
AcDbEntity
8
Floor -0.67m_Rooms
100
AcDbVertex
100
AcDb3dPolylineVertex
10
-0.8648538291967685
20
0.6695451436428552
30
-0.6707406575975862
70
32
0
VERTEX
5
26
330
1B
100
AcDbEntity
8
Floor -0.67m_Rooms
100
AcDbVertex
100
AcDb3dPolylineVertex
10
-0.7908434655627672
20
3.2357569444743053
30
-0.6707406575975862
70
32
0
VERTEX
5
27
330
1B
100
AcDbEntity
8
Floor -0.67m_Rooms
100
AcDbVertex
100
AcDb3dPolylineVertex
10
1.1597378564655885
20
3.296738527234946
30
-0.6707406575975862
70
32
0
VERTEX
5
28
330
1B
100
AcDbEntity
8
Floor -0.67m_Rooms
100
AcDbVertex
100
AcDb3dPolylineVertex
10
1.1193601349640399
20
2.2136281346187268
30
-0.6707406575975862
70
32
0
SEQEND
5
29
330
1B
100
AcDbEntity
8
Floor -0.67m_Rooms
0
ENDSEC
0
SECTION
2
OBJECTS
0
DICTIONARY
5
1
330
0
100
AcDbDictionary
281
1
3
ACAD_GROUP
350
2
3
ACAD_PLOTSTYLENAME
350
3
0
DICTIONARY
5
2
330
1
100
AcDbDictionary
281
1
0
ACDBDICTIONARYWDFLT
5
3
330
1
100
AcDbDictionary
281
1
3
Normal
350
4
100
AcDbDictionaryWithDefault
340
4
0
ACDBPLACEHOLDER
5
4
330
3
0
ENDSEC
0
EOF